<svg xmlns="http://www.w3.org/2000/svg" xmlns:xlink="http://www.w3.org/1999/xlink" width="90" zoomAndPan="magnify" viewBox="0 0 67.5 56.249996" height="75" preserveAspectRatio="xMidYMid meet" version="1.0"><defs><clipPath id="461d1aa671"><path d="M 3.621094 30 L 12 30 L 12 32 L 3.621094 32 Z M 3.621094 30 " clip-rule="nonzero"/></clipPath><clipPath id="7e2a946921"><path d="M 3.621094 29 L 13 29 L 13 31 L 3.621094 31 Z M 3.621094 29 " clip-rule="nonzero"/></clipPath><clipPath id="be5e6d0c7b"><path d="M 3.621094 31 L 11 31 L 11 32.367188 L 3.621094 32.367188 Z M 3.621094 31 " clip-rule="nonzero"/></clipPath><clipPath id="56f9eb6515"><path d="M 55 30 L 63.570312 30 L 63.570312 32 L 55 32 Z M 55 30 " clip-rule="nonzero"/></clipPath><clipPath id="9568d2140d"><path d="M 54 31 L 63.570312 31 L 63.570312 32.367188 L 54 32.367188 Z M 54 31 " clip-rule="nonzero"/></clipPath><clipPath id="553a118a6d"><path d="M 56 29 L 63.570312 29 L 63.570312 31 L 56 31 Z M 56 29 " clip-rule="nonzero"/></clipPath><clipPath id="f2cab02c52"><path d="M 11 26 L 27 26 L 27 32.367188 L 11 32.367188 Z M 11 26 " clip-rule="nonzero"/></clipPath><clipPath id="c5f6175092"><path d="M 25 29 L 34 29 L 34 32.367188 L 25 32.367188 Z M 25 29 " clip-rule="nonzero"/></clipPath><clipPath id="4691a047f9"><path d="M 33 29 L 42 29 L 42 32.367188 L 33 32.367188 Z M 33 29 " clip-rule="nonzero"/></clipPath><clipPath id="40b4941a4a"><path d="M 42 29 L 56 29 L 56 32.367188 L 42 32.367188 Z M 42 29 " clip-rule="nonzero"/></clipPath><clipPath id="cc4ebf85df"><path d="M 12 23.484375 L 29 23.484375 L 29 29 L 12 29 Z M 12 23.484375 " clip-rule="nonzero"/></clipPath><clipPath id="62a523290f"><path d="M 28 23.484375 L 46 23.484375 L 46 29 L 28 29 Z M 28 23.484375 " clip-rule="nonzero"/></clipPath><clipPath id="1e3b977513"><path d="M 43 23.484375 L 54 23.484375 L 54 29 L 43 29 Z M 43 23.484375 " clip-rule="nonzero"/></clipPath></defs><g clip-path="url(#461d1aa671)"><path fill="#d40511" d="M 3.621094 30.542969 L 11.726562 30.542969 L 11.285156 31.167969 L 3.621094 31.167969 Z M 3.621094 30.542969 " fill-opacity="1" fill-rule="nonzero"/></g><g clip-path="url(#7e2a946921)"><path fill="#d40511" d="M 3.621094 29.382812 L 12.550781 29.382812 L 12.109375 30.007812 L 3.621094 30.007812 Z M 3.621094 29.382812 " fill-opacity="1" fill-rule="nonzero"/></g><g clip-path="url(#be5e6d0c7b)"><path fill="#d40511" d="M 3.621094 31.703125 L 10.90625 31.703125 L 10.464844 32.324219 L 3.621094 32.324219 Z M 3.621094 31.703125 " fill-opacity="1" fill-rule="nonzero"/></g><g clip-path="url(#56f9eb6515)"><path fill="#d40511" d="M 63.570312 31.167969 L 55.496094 31.167969 L 55.9375 30.542969 L 63.570312 30.542969 Z M 63.570312 31.167969 " fill-opacity="1" fill-rule="nonzero"/></g><g clip-path="url(#9568d2140d)"><path fill="#d40511" d="M 63.570312 32.324219 L 54.675781 32.324219 L 55.113281 31.703125 L 63.570312 31.703125 Z M 63.570312 32.324219 " fill-opacity="1" fill-rule="nonzero"/></g><g clip-path="url(#553a118a6d)"><path fill="#d40511" d="M 56.761719 29.382812 L 63.570312 29.382812 L 63.570312 30.007812 L 56.316406 30.007812 Z M 56.761719 29.382812 " fill-opacity="1" fill-rule="nonzero"/></g><g clip-path="url(#f2cab02c52)"><path fill="#d40511" d="M 11.472656 32.324219 L 15.320312 26.902344 L 20.09375 26.902344 C 20.621094 26.902344 20.613281 27.109375 20.355469 27.472656 C 20.09375 27.839844 19.648438 28.472656 19.382812 28.847656 C 19.246094 29.035156 19.003906 29.382812 19.8125 29.382812 L 26.210938 29.382812 C 25.679688 30.136719 23.953125 32.324219 20.855469 32.324219 Z M 11.472656 32.324219 " fill-opacity="1" fill-rule="nonzero"/></g><g clip-path="url(#c5f6175092)"><path fill="#d40511" d="M 33.503906 29.382812 L 31.417969 32.324219 L 25.917969 32.324219 C 25.917969 32.324219 28 29.382812 28.003906 29.382812 Z M 33.503906 29.382812 " fill-opacity="1" fill-rule="nonzero"/></g><g clip-path="url(#4691a047f9)"><path fill="#d40511" d="M 41.464844 29.382812 L 39.375 32.324219 L 33.875 32.324219 C 33.875 32.324219 35.960938 29.382812 35.960938 29.382812 Z M 41.464844 29.382812 " fill-opacity="1" fill-rule="nonzero"/></g><g clip-path="url(#40b4941a4a)"><path fill="#d40511" d="M 43.253906 29.382812 C 43.253906 29.382812 42.851562 29.953125 42.65625 30.226562 C 41.964844 31.195312 42.574219 32.324219 44.832031 32.324219 L 53.667969 32.324219 L 55.753906 29.382812 Z M 43.253906 29.382812 " fill-opacity="1" fill-rule="nonzero"/></g><g clip-path="url(#cc4ebf85df)"><path fill="#d40511" d="M 14.164062 23.527344 L 12.246094 26.230469 L 22.6875 26.230469 C 23.214844 26.230469 23.207031 26.4375 22.949219 26.800781 C 22.6875 27.167969 22.25 27.808594 21.984375 28.179688 C 21.847656 28.371094 21.601562 28.714844 22.414062 28.714844 L 26.683594 28.714844 C 26.683594 28.714844 27.371094 27.746094 27.949219 26.933594 C 28.730469 25.828125 28.015625 23.527344 25.210938 23.527344 Z M 14.164062 23.527344 " fill-opacity="1" fill-rule="nonzero"/></g><g clip-path="url(#62a523290f)"><path fill="#d40511" d="M 41.9375 28.714844 L 28.476562 28.714844 L 32.15625 23.527344 L 37.660156 23.527344 L 35.550781 26.503906 L 38.003906 26.503906 L 40.117188 23.527344 L 45.617188 23.527344 Z M 41.9375 28.714844 " fill-opacity="1" fill-rule="nonzero"/></g><g clip-path="url(#1e3b977513)"><path fill="#d40511" d="M 53.234375 23.527344 L 49.554688 28.714844 L 43.726562 28.714844 C 43.726562 28.714844 47.40625 23.527344 47.410156 23.527344 Z M 53.234375 23.527344 " fill-opacity="1" fill-rule="nonzero"/></g></svg>