<svg xmlns="http://www.w3.org/2000/svg" xmlns:xlink="http://www.w3.org/1999/xlink" width="90" zoomAndPan="magnify" viewBox="0 0 67.5 56.249996" height="75" preserveAspectRatio="xMidYMid meet" version="1.0"><defs><clipPath id="92b3068fba"><path d="M 3.621094 19.277344 L 19 19.277344 L 19 36.300781 L 3.621094 36.300781 Z M 3.621094 19.277344 " clip-rule="nonzero"/></clipPath><clipPath id="ca489a7fbc"><path d="M 13 21 L 19 21 L 19 36.300781 L 13 36.300781 Z M 13 21 " clip-rule="nonzero"/></clipPath><clipPath id="7979b3de5b"><path d="M 55 25 L 63.570312 25 L 63.570312 36.300781 L 55 36.300781 Z M 55 25 " clip-rule="nonzero"/></clipPath></defs><g clip-path="url(#92b3068fba)"><path fill="#95bf47" d="M 16.554688 22.5 C 16.542969 22.417969 16.46875 22.371094 16.410156 22.363281 C 16.347656 22.359375 15.15625 22.339844 15.15625 22.339844 C 15.15625 22.339844 14.160156 21.371094 14.0625 21.273438 C 13.964844 21.175781 13.773438 21.207031 13.699219 21.226562 C 13.695312 21.226562 13.511719 21.285156 13.195312 21.382812 C 13.144531 21.214844 13.066406 21.003906 12.957031 20.792969 C 12.601562 20.117188 12.082031 19.757812 11.457031 19.757812 C 11.457031 19.757812 11.453125 19.757812 11.453125 19.757812 C 11.410156 19.757812 11.367188 19.761719 11.324219 19.765625 C 11.304688 19.742188 11.285156 19.722656 11.265625 19.699219 C 10.992188 19.40625 10.644531 19.265625 10.222656 19.277344 C 9.414062 19.300781 8.605469 19.886719 7.953125 20.925781 C 7.492188 21.660156 7.140625 22.578125 7.042969 23.289062 C 6.109375 23.578125 5.460938 23.78125 5.445312 23.785156 C 4.976562 23.933594 4.960938 23.949219 4.898438 24.390625 C 4.855469 24.726562 3.625 34.238281 3.625 34.238281 L 13.925781 36.019531 L 18.386719 34.910156 C 18.386719 34.910156 16.566406 22.585938 16.554688 22.5 Z M 12.679688 21.542969 C 12.445312 21.617188 12.175781 21.699219 11.882812 21.789062 C 11.875 21.378906 11.828125 20.808594 11.636719 20.316406 C 12.25 20.429688 12.554688 21.128906 12.679688 21.542969 Z M 11.34375 21.957031 C 10.804688 22.125 10.214844 22.308594 9.625 22.492188 C 9.789062 21.855469 10.105469 21.21875 10.492188 20.804688 C 10.636719 20.648438 10.835938 20.476562 11.078125 20.378906 C 11.300781 20.847656 11.347656 21.507812 11.34375 21.957031 Z M 10.238281 19.816406 C 10.429688 19.8125 10.589844 19.855469 10.726562 19.945312 C 10.507812 20.058594 10.296875 20.222656 10.097656 20.433594 C 9.582031 20.988281 9.1875 21.847656 9.03125 22.675781 C 8.539062 22.824219 8.0625 22.976562 7.617188 23.113281 C 7.898438 21.808594 8.988281 19.851562 10.238281 19.816406 Z M 10.238281 19.816406 " fill-opacity="1" fill-rule="nonzero"/></g><g clip-path="url(#ca489a7fbc)"><path fill="#5e8e3e" d="M 16.410156 22.363281 C 16.347656 22.359375 15.15625 22.339844 15.15625 22.339844 C 15.15625 22.339844 14.160156 21.375 14.0625 21.273438 C 14.027344 21.238281 13.976562 21.21875 13.925781 21.210938 L 13.925781 36.019531 L 18.386719 34.910156 C 18.386719 34.910156 16.566406 22.585938 16.554688 22.5 C 16.542969 22.417969 16.46875 22.371094 16.410156 22.363281 Z M 16.410156 22.363281 " fill-opacity="1" fill-rule="nonzero"/></g><path fill="#ffffff" d="M 11.449219 24.660156 L 10.933594 26.601562 C 10.933594 26.601562 10.355469 26.339844 9.667969 26.382812 C 8.664062 26.445312 8.652344 27.082031 8.664062 27.242188 C 8.71875 28.109375 11 28.296875 11.128906 30.332031 C 11.226562 31.933594 10.28125 33.027344 8.914062 33.113281 C 7.273438 33.214844 6.371094 32.246094 6.371094 32.246094 L 6.71875 30.765625 C 6.71875 30.765625 7.625 31.453125 8.355469 31.40625 C 8.828125 31.378906 9 30.992188 8.980469 30.71875 C 8.910156 29.585938 7.050781 29.652344 6.933594 27.789062 C 6.835938 26.226562 7.863281 24.636719 10.128906 24.496094 C 11.003906 24.4375 11.449219 24.660156 11.449219 24.660156 Z M 11.449219 24.660156 " fill-opacity="1" fill-rule="nonzero"/><path fill="#000000" d="M 24.265625 28.726562 C 23.753906 28.449219 23.488281 28.214844 23.488281 27.890625 C 23.488281 27.480469 23.855469 27.214844 24.425781 27.214844 C 25.09375 27.214844 25.6875 27.492188 25.6875 27.492188 L 26.15625 26.054688 C 26.15625 26.054688 25.726562 25.71875 24.457031 25.71875 C 22.6875 25.71875 21.464844 26.730469 21.464844 28.152344 C 21.464844 28.960938 22.035156 29.578125 22.800781 30.019531 C 23.414062 30.371094 23.636719 30.621094 23.636719 30.984375 C 23.636719 31.367188 23.328125 31.675781 22.753906 31.675781 C 21.902344 31.675781 21.097656 31.234375 21.097656 31.234375 L 20.601562 32.675781 C 20.601562 32.675781 21.34375 33.171875 22.59375 33.171875 C 24.414062 33.171875 25.71875 32.277344 25.71875 30.664062 C 25.71875 29.796875 25.058594 29.179688 24.265625 28.726562 Z M 24.265625 28.726562 " fill-opacity="1" fill-rule="nonzero"/><path fill="#000000" d="M 31.507812 25.703125 C 30.613281 25.703125 29.910156 26.128906 29.367188 26.773438 L 29.339844 26.761719 L 30.117188 22.695312 L 28.09375 22.695312 L 26.128906 33.042969 L 28.152344 33.042969 L 28.824219 29.503906 C 29.089844 28.167969 29.777344 27.347656 30.421875 27.347656 C 30.878906 27.347656 31.054688 27.65625 31.054688 28.097656 C 31.054688 28.375 31.023438 28.710938 30.964844 28.992188 L 30.203125 33.042969 L 32.226562 33.042969 L 33.019531 28.859375 C 33.105469 28.417969 33.164062 27.890625 33.164062 27.539062 C 33.164062 26.394531 32.5625 25.703125 31.507812 25.703125 Z M 31.507812 25.703125 " fill-opacity="1" fill-rule="nonzero"/><path fill="#000000" d="M 37.738281 25.703125 C 35.304688 25.703125 33.691406 27.90625 33.691406 30.355469 C 33.691406 31.925781 34.660156 33.1875 36.480469 33.1875 C 38.867188 33.1875 40.480469 31.046875 40.480469 28.535156 C 40.480469 27.082031 39.628906 25.703125 37.738281 25.703125 Z M 36.742188 31.632812 C 36.054688 31.632812 35.761719 31.046875 35.761719 30.3125 C 35.761719 29.152344 36.363281 27.257812 37.460938 27.257812 C 38.179688 27.257812 38.414062 27.875 38.414062 28.476562 C 38.414062 29.726562 37.8125 31.632812 36.742188 31.632812 Z M 36.742188 31.632812 " fill-opacity="1" fill-rule="nonzero"/><path fill="#000000" d="M 45.65625 25.703125 C 44.289062 25.703125 43.515625 26.90625 43.515625 26.90625 L 43.488281 26.90625 L 43.605469 25.820312 L 41.816406 25.820312 C 41.726562 26.554688 41.566406 27.667969 41.40625 28.507812 L 39.996094 35.917969 L 42.019531 35.917969 L 42.578125 32.921875 L 42.621094 32.921875 C 42.621094 32.921875 43.039062 33.1875 43.808594 33.1875 C 46.183594 33.1875 47.738281 30.75 47.738281 28.285156 C 47.738281 26.921875 47.136719 25.703125 45.65625 25.703125 Z M 43.722656 31.660156 C 43.195312 31.660156 42.886719 31.367188 42.886719 31.367188 L 43.222656 29.476562 C 43.457031 28.214844 44.117188 27.375 44.820312 27.375 C 45.4375 27.375 45.628906 27.949219 45.628906 28.492188 C 45.628906 29.796875 44.851562 31.660156 43.722656 31.660156 Z M 43.722656 31.660156 " fill-opacity="1" fill-rule="nonzero"/><path fill="#000000" d="M 50.628906 22.796875 C 49.980469 22.796875 49.46875 23.3125 49.46875 23.972656 C 49.46875 24.574219 49.851562 24.984375 50.421875 24.984375 L 50.449219 24.984375 C 51.082031 24.984375 51.625 24.558594 51.640625 23.808594 C 51.640625 23.222656 51.242188 22.796875 50.628906 22.796875 Z M 50.628906 22.796875 " fill-opacity="1" fill-rule="nonzero"/><path fill="#000000" d="M 47.796875 33.042969 L 49.820312 33.042969 L 51.199219 25.863281 L 49.160156 25.863281 Z M 47.796875 33.042969 " fill-opacity="1" fill-rule="nonzero"/><path fill="#000000" d="M 56.34375 25.851562 L 54.9375 25.851562 L 55.011719 25.511719 C 55.128906 24.824219 55.539062 24.207031 56.214844 24.207031 C 56.574219 24.207031 56.859375 24.308594 56.859375 24.308594 L 57.253906 22.722656 C 57.253906 22.722656 56.902344 22.546875 56.152344 22.546875 C 55.4375 22.546875 54.71875 22.753906 54.175781 23.222656 C 53.484375 23.808594 53.164062 24.660156 53.003906 25.511719 L 52.945312 25.851562 L 52.003906 25.851562 L 51.710938 27.375 L 52.652344 27.375 L 51.582031 33.042969 L 53.605469 33.042969 L 54.675781 27.375 L 56.066406 27.375 Z M 56.34375 25.851562 " fill-opacity="1" fill-rule="nonzero"/><g clip-path="url(#7979b3de5b)"><path fill="#000000" d="M 61.210938 25.863281 C 61.210938 25.863281 59.949219 29.054688 59.378906 30.796875 L 59.351562 30.796875 C 59.3125 30.234375 58.851562 25.863281 58.851562 25.863281 L 56.726562 25.863281 L 57.941406 32.453125 C 57.972656 32.601562 57.957031 32.6875 57.898438 32.792969 C 57.664062 33.246094 57.269531 33.6875 56.800781 34.011719 C 56.417969 34.289062 55.992188 34.464844 55.65625 34.582031 L 56.214844 36.300781 C 56.625 36.210938 57.472656 35.875 58.191406 35.199219 C 59.117188 34.332031 59.964844 32.996094 60.847656 31.175781 L 63.324219 25.863281 Z M 61.210938 25.863281 " fill-opacity="1" fill-rule="nonzero"/></g></svg>