<svg xmlns="http://www.w3.org/2000/svg" xmlns:xlink="http://www.w3.org/1999/xlink" width="90" zoomAndPan="magnify" viewBox="0 0 67.5 56.249996" height="75" preserveAspectRatio="xMidYMid meet" version="1.0"><defs><clipPath id="1043a559a9"><path d="M 13.011719 20.582031 L 53.71875 20.582031 L 53.71875 34.644531 L 13.011719 34.644531 Z M 13.011719 20.582031 " clip-rule="nonzero"/></clipPath></defs><g clip-path="url(#1043a559a9)"><path fill="#000000" d="M 53.71875 20.605469 L 23.953125 33.054688 C 21.476562 34.101562 19.386719 34.621094 17.71875 34.621094 C 15.824219 34.621094 14.460938 33.964844 13.597656 32.644531 C 12.511719 30.941406 12.984375 28.21875 14.851562 25.332031 C 15.964844 23.65625 17.382812 22.117188 18.777344 20.632812 C 18.441406 21.15625 15.574219 25.882812 18.71875 28.109375 C 19.332031 28.546875 20.222656 28.769531 21.308594 28.769531 C 22.171875 28.769531 23.175781 28.632812 24.289062 28.355469 Z M 53.71875 20.605469 " fill-opacity="1" fill-rule="evenodd"/></g></svg>