<svg xmlns="http://www.w3.org/2000/svg" xmlns:xlink="http://www.w3.org/1999/xlink" width="90" zoomAndPan="magnify" viewBox="0 0 67.5 56.249996" height="75" preserveAspectRatio="xMidYMid meet" version="1.0"><defs><clipPath id="0654eab345"><path d="M 56 31 L 60.035156 31 L 60.035156 35 L 56 35 Z M 56 31 " clip-rule="nonzero"/></clipPath><clipPath id="f7ce9386d9"><path d="M 34 20.351562 L 43 20.351562 L 43 35 L 34 35 Z M 34 20.351562 " clip-rule="nonzero"/></clipPath><clipPath id="7a4f0aac1a"><path d="M 6.746094 20.351562 L 35 20.351562 L 35 35.15625 L 6.746094 35.15625 Z M 6.746094 20.351562 " clip-rule="nonzero"/></clipPath></defs><g clip-path="url(#0654eab345)"><path fill="#ff6200" d="M 56.582031 32.949219 C 56.582031 31.9375 57.382812 31.246094 58.296875 31.246094 C 59.214844 31.246094 60.015625 31.9375 60.015625 32.949219 C 60.015625 33.960938 59.214844 34.648438 58.296875 34.648438 C 57.40625 34.648438 56.582031 33.960938 56.582031 32.949219 M 58.320312 32.765625 C 58.617188 32.765625 58.6875 32.605469 58.6875 32.464844 C 58.6875 32.304688 58.59375 32.167969 58.320312 32.167969 L 57.953125 32.167969 L 57.953125 32.765625 Z M 57.929688 33.015625 L 57.929688 33.960938 L 57.632812 33.960938 L 57.632812 31.914062 L 58.390625 31.914062 C 58.824219 31.914062 59.03125 32.097656 59.03125 32.488281 C 59.03125 32.71875 58.871094 32.902344 58.664062 32.925781 C 58.847656 32.949219 58.894531 33.109375 58.9375 33.386719 C 58.960938 33.570312 59.007812 33.890625 59.074219 33.960938 L 58.710938 33.960938 C 58.617188 33.777344 58.640625 33.5 58.574219 33.269531 C 58.527344 33.085938 58.433594 33.039062 58.230469 33.039062 Z M 59.695312 32.949219 C 59.695312 32.121094 59.121094 31.523438 58.320312 31.523438 C 57.519531 31.523438 56.945312 32.121094 56.945312 32.949219 C 56.945312 33.777344 57.519531 34.375 58.320312 34.375 C 59.097656 34.375 59.695312 33.777344 59.695312 32.949219 " fill-opacity="1" fill-rule="nonzero"/></g><path fill="#ff6200" d="M 50.652344 34.648438 L 48.683594 32.417969 L 46.738281 34.648438 L 42.617188 34.648438 L 46.644531 30.097656 L 42.617188 25.570312 L 46.875 25.570312 L 48.867188 27.777344 L 50.765625 25.570312 L 54.863281 25.570312 L 50.859375 30.097656 L 54.933594 34.648438 Z M 50.652344 34.648438 " fill-opacity="1" fill-rule="nonzero"/><g clip-path="url(#f7ce9386d9)"><path fill="#ff6200" d="M 34.71875 34.648438 L 34.71875 20.351562 L 42.617188 20.351562 L 42.617188 23.546875 L 38.0625 23.546875 L 38.0625 25.570312 L 42.617188 25.570312 L 42.617188 28.628906 L 38.0625 28.628906 L 38.0625 31.453125 L 42.617188 31.453125 L 42.617188 34.648438 Z M 34.71875 34.648438 " fill-opacity="1" fill-rule="nonzero"/></g><g clip-path="url(#7a4f0aac1a)"><path fill="#4d148c" d="M 29.363281 32.464844 C 28.128906 32.464844 27.371094 31.316406 27.371094 30.121094 C 27.371094 28.835938 28.035156 27.617188 29.363281 27.617188 C 30.738281 27.617188 31.285156 28.855469 31.285156 30.121094 C 31.285156 31.339844 30.714844 32.464844 29.363281 32.464844 M 17.527344 28.671875 C 17.734375 27.777344 18.445312 27.179688 19.3125 27.179688 C 20.277344 27.179688 20.941406 27.753906 21.121094 28.671875 Z M 31.378906 20.351562 L 31.378906 26.191406 L 31.332031 26.191406 C 30.597656 25.339844 29.660156 25.042969 28.609375 25.042969 C 26.410156 25.042969 24.761719 26.535156 24.191406 28.511719 C 23.527344 26.328125 21.832031 24.996094 19.292969 24.996094 C 17.230469 24.996094 15.628906 25.914062 14.78125 27.433594 L 14.78125 25.570312 L 10.546875 25.570312 L 10.546875 23.546875 L 15.171875 23.546875 L 15.171875 20.351562 L 6.769531 20.351562 L 6.769531 34.648438 L 10.546875 34.648438 L 10.546875 28.628906 L 14.324219 28.628906 C 14.210938 29.0625 14.140625 29.546875 14.140625 30.03125 C 14.140625 33.015625 16.40625 35.109375 19.3125 35.109375 C 21.742188 35.109375 23.34375 33.960938 24.214844 31.867188 L 20.960938 31.867188 C 20.527344 32.488281 20.183594 32.671875 19.3125 32.671875 C 18.308594 32.671875 17.414062 31.777344 17.414062 30.71875 L 24.007812 30.71875 C 24.28125 33.085938 26.136719 35.132812 28.652344 35.132812 C 29.730469 35.132812 30.738281 34.601562 31.355469 33.683594 L 31.402344 33.683594 L 31.402344 34.601562 L 34.742188 34.601562 L 34.742188 20.351562 Z M 31.378906 20.351562 " fill-opacity="1" fill-rule="nonzero"/></g></svg>