<svg xmlns="http://www.w3.org/2000/svg" xmlns:xlink="http://www.w3.org/1999/xlink" width="90" zoomAndPan="magnify" viewBox="0 0 67.5 56.249996" height="75" preserveAspectRatio="xMidYMid meet" version="1.0"><defs><clipPath id="d128049a16"><path d="M 6.746094 21.277344 L 19 21.277344 L 19 33.859375 L 6.746094 33.859375 Z M 6.746094 21.277344 " clip-rule="nonzero"/></clipPath><clipPath id="177e3c28ea"><path d="M 14 21.277344 L 30 21.277344 L 30 33.859375 L 14 33.859375 Z M 14 21.277344 " clip-rule="nonzero"/></clipPath><clipPath id="8cba84f085"><path d="M 31 21.277344 L 40 21.277344 L 40 28 L 31 28 Z M 31 21.277344 " clip-rule="nonzero"/></clipPath><clipPath id="bf60a638ce"><path d="M 47 21.277344 L 50 21.277344 L 50 28 L 47 28 Z M 47 21.277344 " clip-rule="nonzero"/></clipPath><clipPath id="a09cafb92c"><path d="M 57 22 L 61.515625 22 L 61.515625 28 L 57 28 Z M 57 22 " clip-rule="nonzero"/></clipPath><clipPath id="c2bbb5b6ce"><path d="M 31 27 L 37 27 L 37 33.859375 L 31 33.859375 Z M 31 27 " clip-rule="nonzero"/></clipPath><clipPath id="768898fc49"><path d="M 37 29 L 42 29 L 42 33.859375 L 37 33.859375 Z M 37 29 " clip-rule="nonzero"/></clipPath><clipPath id="89cedea439"><path d="M 42 29 L 44 29 L 44 33.859375 L 42 33.859375 Z M 42 29 " clip-rule="nonzero"/></clipPath><clipPath id="eab2a42214"><path d="M 43 29 L 49 29 L 49 33.859375 L 43 33.859375 Z M 43 29 " clip-rule="nonzero"/></clipPath><clipPath id="d8e7a31a96"><path d="M 48 29 L 53 29 L 53 33.859375 L 48 33.859375 Z M 48 29 " clip-rule="nonzero"/></clipPath></defs><g clip-path="url(#d128049a16)"><path fill="#000000" d="M 13.359375 32.34375 C 14.515625 34.316406 16.4375 34.316406 17.59375 32.34375 L 18.207031 31.210938 L 12.359375 21.277344 L 6.898438 21.277344 Z M 13.359375 32.34375 " fill-opacity="1" fill-rule="nonzero"/></g><g clip-path="url(#177e3c28ea)"><path fill="#000000" d="M 25.59375 28.101562 C 25.128906 28.859375 24.132812 28.859375 23.746094 28.101562 L 19.746094 21.277344 L 14.207031 21.277344 L 20.667969 32.34375 C 21.824219 34.316406 23.746094 34.316406 24.902344 32.34375 L 29.210938 24.917969 L 27.054688 21.277344 L 21.515625 21.277344 Z M 25.59375 28.101562 " fill-opacity="1" fill-rule="nonzero"/></g><g clip-path="url(#8cba84f085)"><path fill="#000000" d="M 33.054688 27.113281 L 34.207031 27.113281 C 34.902344 24.535156 35.210938 23.476562 35.285156 22.792969 C 35.363281 23.476562 35.671875 24.613281 36.363281 27.113281 L 37.519531 27.113281 L 39.132812 21.277344 L 38.054688 21.277344 C 37.363281 23.933594 37.054688 24.992188 36.976562 25.675781 C 36.824219 24.917969 36.515625 23.703125 35.898438 21.277344 L 34.820312 21.277344 C 34.128906 23.933594 33.820312 25.070312 33.746094 25.75 C 33.589844 25.070312 33.28125 23.855469 32.589844 21.277344 L 31.511719 21.277344 Z M 33.054688 27.113281 " fill-opacity="1" fill-rule="nonzero"/></g><path fill="#000000" d="M 40.902344 27.191406 C 41.746094 27.191406 42.59375 26.734375 42.902344 26.054688 L 42.132812 25.675781 C 42.054688 25.902344 41.671875 26.359375 40.980469 26.359375 C 40.285156 26.359375 39.828125 25.976562 39.75 25.371094 L 43.132812 25.371094 L 43.132812 25.296875 C 43.132812 24.460938 42.902344 23.78125 42.519531 23.324219 C 42.132812 22.945312 41.59375 22.71875 40.980469 22.71875 C 40.363281 22.71875 39.828125 22.945312 39.363281 23.402344 C 38.980469 23.78125 38.75 24.386719 38.75 24.992188 C 38.671875 26.28125 39.597656 27.191406 40.902344 27.191406 Z M 40.828125 23.628906 C 41.441406 23.628906 41.90625 24.007812 41.980469 24.539062 L 39.671875 24.539062 C 39.75 24.007812 40.210938 23.628906 40.828125 23.628906 Z M 40.828125 23.628906 " fill-opacity="1" fill-rule="nonzero"/><path fill="#000000" d="M 45.210938 27.191406 C 46.289062 27.191406 46.980469 26.660156 46.980469 25.902344 C 46.980469 24.917969 46.058594 24.6875 45.363281 24.535156 C 44.902344 24.382812 44.441406 24.308594 44.441406 24.007812 C 44.441406 23.78125 44.671875 23.550781 45.058594 23.550781 C 45.441406 23.550781 45.75 23.777344 45.828125 24.082031 L 45.828125 24.234375 L 46.671875 24.082031 C 46.671875 23.25 45.980469 22.714844 44.980469 22.714844 C 43.980469 22.714844 43.363281 23.246094 43.363281 24.003906 C 43.363281 24.914062 44.210938 25.140625 44.902344 25.292969 C 45.441406 25.445312 45.824219 25.519531 45.824219 25.898438 C 45.824219 26.203125 45.515625 26.355469 45.132812 26.355469 C 44.59375 26.355469 44.210938 26.128906 44.210938 25.671875 L 44.210938 25.597656 L 43.363281 25.824219 C 43.367188 26.738281 44.367188 27.191406 45.210938 27.191406 Z M 45.210938 27.191406 " fill-opacity="1" fill-rule="nonzero"/><g clip-path="url(#bf60a638ce)"><path fill="#000000" d="M 47.75 26.359375 C 47.75 26.8125 48.058594 27.265625 48.597656 27.265625 C 49.210938 27.265625 49.441406 27.191406 49.441406 27.191406 L 49.441406 26.359375 C 49.441406 26.359375 49.285156 26.359375 48.980469 26.359375 C 48.824219 26.359375 48.75 26.28125 48.75 26.128906 L 48.75 23.628906 L 49.441406 23.628906 L 49.441406 22.792969 L 48.75 22.792969 L 48.75 21.582031 L 47.75 21.808594 L 47.75 22.792969 L 47.210938 22.792969 L 47.210938 23.628906 L 47.75 23.628906 Z M 47.75 26.359375 " fill-opacity="1" fill-rule="nonzero"/></g><path fill="#000000" d="M 55.367188 23.402344 L 55.367188 22.871094 L 54.519531 22.871094 L 54.519531 27.191406 L 55.523438 27.191406 L 55.523438 24.539062 C 55.523438 24.3125 55.597656 24.082031 55.753906 23.933594 C 55.980469 23.78125 56.289062 23.707031 56.753906 23.78125 L 56.828125 23.78125 L 56.828125 22.871094 L 56.753906 22.871094 C 56.214844 22.71875 55.675781 22.945312 55.367188 23.402344 Z M 55.367188 23.402344 " fill-opacity="1" fill-rule="nonzero"/><g clip-path="url(#a09cafb92c)"><path fill="#000000" d="M 59.675781 22.792969 C 59.0625 22.792969 58.445312 23.019531 58.214844 23.476562 L 58.214844 22.871094 L 57.292969 22.871094 L 57.292969 27.191406 L 58.292969 27.191406 L 58.292969 24.917969 C 58.292969 24.15625 58.679688 23.703125 59.371094 23.703125 C 59.832031 23.703125 60.371094 23.929688 60.371094 24.839844 L 60.371094 27.191406 L 61.371094 27.191406 L 61.371094 24.6875 C 61.367188 23.25 60.523438 22.792969 59.675781 22.792969 Z M 59.675781 22.792969 " fill-opacity="1" fill-rule="nonzero"/></g><g clip-path="url(#c2bbb5b6ce)"><path fill="#000000" d="M 35.671875 31.359375 C 35.671875 32.34375 35.210938 32.875 34.363281 32.875 C 33.519531 32.875 33.054688 32.34375 33.054688 31.359375 L 33.054688 27.949219 L 31.976562 27.949219 L 31.976562 31.359375 C 31.976562 32.953125 32.902344 33.859375 34.363281 33.859375 C 35.828125 33.859375 36.75 32.953125 36.75 31.359375 L 36.75 27.949219 L 35.671875 27.949219 Z M 35.671875 31.359375 " fill-opacity="1" fill-rule="nonzero"/></g><g clip-path="url(#768898fc49)"><path fill="#000000" d="M 39.671875 29.386719 C 39.054688 29.386719 38.441406 29.617188 38.210938 30.070312 L 38.210938 29.464844 L 37.289062 29.464844 L 37.289062 33.785156 L 38.289062 33.785156 L 38.289062 31.511719 C 38.289062 30.75 38.671875 30.296875 39.367188 30.296875 C 39.828125 30.296875 40.367188 30.523438 40.367188 31.433594 L 40.367188 33.785156 L 41.367188 33.785156 L 41.367188 31.285156 C 41.363281 29.84375 40.519531 29.386719 39.671875 29.386719 Z M 39.671875 29.386719 " fill-opacity="1" fill-rule="nonzero"/></g><g clip-path="url(#89cedea439)"><path fill="#000000" d="M 42.058594 29.464844 L 43.058594 29.464844 L 43.058594 33.785156 L 42.058594 33.785156 Z M 42.058594 29.464844 " fill-opacity="1" fill-rule="nonzero"/></g><path fill="#000000" d="M 42.519531 27.871094 C 42.210938 27.871094 41.902344 28.101562 41.902344 28.480469 C 41.902344 28.78125 42.132812 29.085938 42.519531 29.085938 C 42.824219 29.085938 43.132812 28.859375 43.132812 28.480469 C 43.136719 28.101562 42.902344 27.871094 42.519531 27.871094 Z M 42.519531 27.871094 " fill-opacity="1" fill-rule="nonzero"/><g clip-path="url(#eab2a42214)"><path fill="#000000" d="M 45.828125 29.386719 C 45.210938 29.386719 44.597656 29.617188 44.210938 29.996094 C 43.824219 30.375 43.597656 30.980469 43.597656 31.585938 C 43.597656 32.875 44.597656 33.785156 45.90625 33.785156 C 47.210938 33.785156 48.214844 32.875 48.214844 31.585938 C 48.214844 30.980469 47.984375 30.375 47.519531 29.996094 C 47.058594 29.617188 46.519531 29.386719 45.828125 29.386719 Z M 45.828125 32.875 C 45.058594 32.875 44.519531 32.34375 44.519531 31.585938 C 44.519531 30.828125 45.058594 30.296875 45.828125 30.296875 C 46.597656 30.296875 47.136719 30.828125 47.136719 31.585938 C 47.136719 32.34375 46.597656 32.875 45.828125 32.875 Z M 45.828125 32.875 " fill-opacity="1" fill-rule="nonzero"/></g><g clip-path="url(#d8e7a31a96)"><path fill="#000000" d="M 50.980469 29.386719 C 50.367188 29.386719 49.75 29.617188 49.519531 30.070312 L 49.519531 29.464844 L 48.597656 29.464844 L 48.597656 33.785156 L 49.597656 33.785156 L 49.597656 31.511719 C 49.597656 30.75 49.984375 30.296875 50.675781 30.296875 C 51.140625 30.296875 51.675781 30.523438 51.675781 31.433594 L 51.675781 33.785156 L 52.675781 33.785156 L 52.675781 31.285156 C 52.75 29.84375 51.828125 29.386719 50.980469 29.386719 Z M 50.980469 29.386719 " fill-opacity="1" fill-rule="nonzero"/></g><path fill="#000000" d="M 51.90625 22.792969 C 51.289062 22.792969 50.75 23.019531 50.289062 23.476562 C 49.902344 23.855469 49.675781 24.460938 49.675781 25.070312 C 49.675781 26.359375 50.597656 27.265625 51.90625 27.265625 C 52.75 27.265625 53.597656 26.8125 53.90625 26.128906 L 53.136719 25.75 C 53.058594 25.976562 52.671875 26.433594 51.984375 26.433594 C 51.292969 26.433594 50.828125 26.054688 50.75 25.449219 L 54.136719 25.449219 L 54.136719 25.371094 C 54.136719 24.539062 53.90625 23.855469 53.519531 23.402344 C 53.058594 22.945312 52.519531 22.792969 51.90625 22.792969 Z M 50.675781 24.539062 C 50.75 24.007812 51.210938 23.628906 51.828125 23.628906 C 52.441406 23.628906 52.90625 24.007812 52.980469 24.539062 Z M 50.675781 24.539062 " fill-opacity="1" fill-rule="nonzero"/></svg>