<svg xmlns="http://www.w3.org/2000/svg" xmlns:xlink="http://www.w3.org/1999/xlink" width="90" zoomAndPan="magnify" viewBox="0 0 67.5 56.249996" height="75" preserveAspectRatio="xMidYMid meet" version="1.0"><path fill="#0070e0" d="M 54.125 23.996094 L 52.941406 31.609375 C 52.933594 31.671875 52.949219 31.722656 52.984375 31.769531 C 53.023438 31.816406 53.074219 31.835938 53.132812 31.835938 L 54.53125 31.835938 C 54.648438 31.835938 54.714844 31.777344 54.734375 31.660156 L 55.917969 24.042969 C 55.925781 23.984375 55.914062 23.933594 55.875 23.886719 C 55.835938 23.839844 55.785156 23.816406 55.726562 23.820312 L 54.328125 23.820312 C 54.210938 23.816406 54.140625 23.875 54.125 23.996094 Z M 52.628906 26.21875 L 51.304688 26.21875 C 51.1875 26.21875 51.117188 26.277344 51.097656 26.394531 L 51.054688 26.675781 C 51.054688 26.675781 50.023438 25.53125 48.199219 26.304688 C 47.152344 26.75 46.648438 27.664062 46.4375 28.335938 C 46.4375 28.335938 45.757812 30.375 47.292969 31.5 C 47.292969 31.5 48.714844 32.578125 50.320312 31.433594 L 50.289062 31.609375 C 50.277344 31.707031 50.3125 31.777344 50.398438 31.820312 C 50.425781 31.832031 50.453125 31.835938 50.480469 31.835938 L 51.808594 31.835938 C 51.925781 31.839844 51.996094 31.78125 52.011719 31.660156 L 52.820312 26.445312 C 52.832031 26.382812 52.816406 26.332031 52.777344 26.285156 C 52.738281 26.242188 52.691406 26.21875 52.628906 26.21875 Z M 50.679688 29.101562 C 50.625 29.476562 50.457031 29.789062 50.171875 30.035156 C 49.890625 30.28125 49.558594 30.402344 49.1875 30.398438 C 49.046875 30.402344 48.90625 30.378906 48.769531 30.335938 C 48.199219 30.148438 47.871094 29.589844 47.964844 28.980469 C 48.019531 28.605469 48.1875 28.292969 48.472656 28.046875 C 48.753906 27.800781 49.082031 27.679688 49.457031 27.683594 C 49.597656 27.683594 49.738281 27.703125 49.871094 27.746094 C 50.449219 27.933594 50.773438 28.492188 50.679688 29.101562 Z M 43.59375 29.246094 C 44.3125 29.246094 45.007812 28.984375 45.554688 28.503906 C 46.117188 28.015625 46.457031 27.394531 46.574219 26.644531 C 46.804688 25.136719 45.648438 23.820312 44.007812 23.820312 L 41.363281 23.820312 C 41.246094 23.820312 41.179688 23.878906 41.160156 24 L 39.976562 31.613281 C 39.960938 31.710938 40 31.78125 40.085938 31.820312 C 40.113281 31.832031 40.140625 31.839844 40.167969 31.839844 L 41.566406 31.839844 C 41.683594 31.839844 41.753906 31.78125 41.769531 31.660156 L 42.117188 29.425781 C 42.136719 29.304688 42.203125 29.242188 42.324219 29.246094 Z M 44.761719 26.578125 C 44.675781 27.132812 44.253906 27.546875 43.441406 27.546875 L 42.40625 27.546875 L 42.722656 25.515625 L 43.738281 25.515625 C 44.578125 25.519531 44.851562 26.023438 44.761719 26.578125 Z M 44.761719 26.578125 " fill-opacity="1" fill-rule="nonzero"/><path fill="#003087" d="M 38.382812 26.347656 L 36.78125 29.097656 L 35.96875 26.367188 C 35.941406 26.265625 35.875 26.21875 35.773438 26.21875 L 34.328125 26.21875 C 34.238281 26.21875 34.1875 26.261719 34.171875 26.351562 C 34.167969 26.378906 34.171875 26.402344 34.179688 26.429688 L 35.636719 31.027344 L 34.320312 33.195312 C 34.261719 33.285156 34.277344 33.359375 34.371094 33.414062 C 34.394531 33.429688 34.421875 33.4375 34.449219 33.433594 L 36.007812 33.433594 C 36.105469 33.4375 36.175781 33.394531 36.226562 33.308594 L 40.292969 26.460938 C 40.328125 26.410156 40.328125 26.355469 40.296875 26.300781 C 40.265625 26.246094 40.222656 26.21875 40.160156 26.222656 L 38.605469 26.222656 C 38.507812 26.21875 38.433594 26.261719 38.382812 26.347656 Z M 33.507812 26.21875 L 32.179688 26.21875 C 32.0625 26.21875 31.992188 26.277344 31.976562 26.398438 L 31.933594 26.675781 C 31.933594 26.675781 30.902344 25.53125 29.074219 26.304688 C 28.03125 26.75 27.527344 27.664062 27.3125 28.335938 C 27.3125 28.335938 26.632812 30.375 28.167969 31.5 C 28.167969 31.5 29.59375 32.578125 31.195312 31.433594 L 31.167969 31.613281 C 31.152344 31.710938 31.1875 31.777344 31.277344 31.820312 C 31.300781 31.832031 31.328125 31.835938 31.355469 31.835938 L 32.683594 31.835938 C 32.800781 31.835938 32.871094 31.777344 32.890625 31.660156 L 33.699219 26.445312 C 33.714844 26.347656 33.675781 26.277344 33.589844 26.238281 C 33.5625 26.226562 33.535156 26.21875 33.507812 26.21875 Z M 31.554688 29.101562 C 31.503906 29.476562 31.332031 29.789062 31.050781 30.035156 C 30.765625 30.28125 30.4375 30.402344 30.066406 30.398438 C 29.925781 30.402344 29.785156 30.378906 29.648438 30.335938 C 29.078125 30.148438 28.75 29.589844 28.84375 28.980469 C 28.898438 28.605469 29.066406 28.292969 29.351562 28.046875 C 29.636719 27.800781 29.964844 27.679688 30.339844 27.683594 C 30.480469 27.683594 30.621094 27.703125 30.757812 27.746094 C 31.328125 27.933594 31.652344 28.492188 31.558594 29.101562 Z M 24.472656 29.246094 C 25.210938 29.246094 25.867188 28.996094 26.429688 28.503906 C 26.996094 28.015625 27.332031 27.394531 27.449219 26.644531 C 27.679688 25.136719 26.523438 23.820312 24.882812 23.820312 L 22.238281 23.820312 C 22.121094 23.820312 22.054688 23.878906 22.035156 24 L 20.855469 31.609375 C 20.839844 31.710938 20.878906 31.777344 20.964844 31.820312 C 20.992188 31.832031 21.019531 31.835938 21.046875 31.835938 L 22.445312 31.835938 C 22.5625 31.839844 22.628906 31.777344 22.648438 31.660156 L 22.996094 29.421875 C 23.011719 29.300781 23.082031 29.242188 23.203125 29.246094 Z M 25.640625 26.578125 C 25.554688 27.132812 25.132812 27.546875 24.320312 27.546875 L 23.285156 27.546875 L 23.597656 25.515625 L 24.617188 25.515625 C 25.453125 25.519531 25.726562 26.023438 25.640625 26.578125 Z M 25.640625 26.578125 " fill-opacity="1" fill-rule="nonzero"/><path fill="#001c64" d="M 15.429688 24.210938 C 15.460938 22.53125 14.109375 21.242188 12.25 21.242188 L 8.402344 21.242188 C 8.1875 21.242188 8.066406 21.347656 8.03125 21.566406 L 6.492188 31.441406 C 6.476562 31.539062 6.5 31.621094 6.558594 31.695312 C 6.621094 31.769531 6.699219 31.804688 6.792969 31.804688 L 9.070312 31.804688 L 8.714844 34.09375 C 8.699219 34.1875 8.722656 34.269531 8.785156 34.34375 C 8.847656 34.417969 8.921875 34.453125 9.015625 34.453125 L 10.875 34.453125 C 10.960938 34.453125 11.042969 34.421875 11.109375 34.363281 C 11.179688 34.300781 11.191406 34.21875 11.203125 34.128906 L 11.75 30.839844 C 11.761719 30.75 11.808594 30.632812 11.875 30.574219 C 11.945312 30.511719 12.003906 30.480469 12.09375 30.480469 L 13.230469 30.480469 C 15.050781 30.480469 16.59375 29.152344 16.878906 27.304688 C 17.078125 25.996094 16.53125 24.804688 15.429688 24.210938 Z M 15.429688 24.210938 " fill-opacity="1" fill-rule="nonzero"/><path fill="#0070e0" d="M 9.5625 28.164062 L 8.996094 31.855469 L 8.640625 34.167969 C 8.625 34.265625 8.648438 34.347656 8.710938 34.421875 C 8.769531 34.496094 8.847656 34.53125 8.941406 34.53125 L 10.90625 34.53125 C 11.121094 34.53125 11.246094 34.421875 11.277344 34.207031 L 11.796875 30.839844 C 11.828125 30.625 11.953125 30.515625 12.167969 30.515625 L 13.324219 30.515625 C 15.144531 30.515625 16.691406 29.152344 16.972656 27.304688 C 17.171875 25.996094 16.53125 24.804688 15.429688 24.210938 C 15.425781 24.351562 15.414062 24.492188 15.394531 24.628906 C 15.113281 26.472656 13.566406 27.835938 11.746094 27.835938 L 9.9375 27.835938 C 9.722656 27.835938 9.597656 27.945312 9.5625 28.164062 " fill-opacity="1" fill-rule="nonzero"/><path fill="#003087" d="M 8.996094 31.855469 L 6.710938 31.855469 C 6.617188 31.855469 6.539062 31.816406 6.480469 31.742188 C 6.417969 31.671875 6.394531 31.585938 6.410156 31.492188 L 7.949219 21.46875 C 7.984375 21.25 8.109375 21.144531 8.320312 21.144531 L 12.25 21.144531 C 14.109375 21.144531 15.460938 22.53125 15.429688 24.210938 C 14.96875 23.960938 14.421875 23.820312 13.828125 23.820312 L 10.554688 23.820312 C 10.339844 23.820312 10.214844 23.929688 10.179688 24.144531 L 9.566406 28.164062 Z M 8.996094 31.855469 " fill-opacity="1" fill-rule="nonzero"/></svg>