<svg xmlns="http://www.w3.org/2000/svg" xmlns:xlink="http://www.w3.org/1999/xlink" width="90" zoomAndPan="magnify" viewBox="0 0 67.5 56.249996" height="75" preserveAspectRatio="xMidYMid meet" version="1.0"><defs><clipPath id="ef3ef8753e"><path d="M 16 26 L 22 26 L 22 31.988281 L 16 31.988281 Z M 16 26 " clip-rule="nonzero"/></clipPath><clipPath id="fa0ccc3317"><path d="M 22 24 L 26 24 L 26 31.988281 L 22 31.988281 Z M 22 24 " clip-rule="nonzero"/></clipPath><clipPath id="3a7780bb8b"><path d="M 25 26 L 28 26 L 28 31.988281 L 25 31.988281 Z M 25 26 " clip-rule="nonzero"/></clipPath><clipPath id="d68bfa221f"><path d="M 25 23.847656 L 28 23.847656 L 28 26 L 25 26 Z M 25 23.847656 " clip-rule="nonzero"/></clipPath><clipPath id="534fef816d"><path d="M 47 26 L 53 26 L 53 31.988281 L 47 31.988281 Z M 47 26 " clip-rule="nonzero"/></clipPath><clipPath id="cabff2c2aa"><path d="M 53 24 L 59 24 L 59 31.988281 L 53 31.988281 Z M 53 24 " clip-rule="nonzero"/></clipPath><clipPath id="a311fc4bd2"><path d="M 5.75 23.847656 L 11 23.847656 L 11 31.988281 L 5.75 31.988281 Z M 5.75 23.847656 " clip-rule="nonzero"/></clipPath><clipPath id="e1d78f0038"><path d="M 58 29 L 60.519531 29 L 60.519531 31.988281 L 58 31.988281 Z M 58 29 " clip-rule="nonzero"/></clipPath><clipPath id="2fa9f249e6"><path d="M 59 30 L 60.519531 30 L 60.519531 31.988281 L 59 31.988281 Z M 59 30 " clip-rule="nonzero"/></clipPath><clipPath id="7b3d56473e"><path d="M 11 26 L 17 26 L 17 31.988281 L 11 31.988281 Z M 11 26 " clip-rule="nonzero"/></clipPath><clipPath id="92cb7d2248"><path d="M 28 26 L 34 26 L 34 31.988281 L 28 31.988281 Z M 28 26 " clip-rule="nonzero"/></clipPath><clipPath id="9bb1ee043f"><path d="M 40 26 L 47 26 L 47 31.988281 L 40 31.988281 Z M 40 26 " clip-rule="nonzero"/></clipPath><clipPath id="2d604af7b7"><path d="M 34 24 L 41 24 L 41 31.988281 L 34 31.988281 Z M 34 24 " clip-rule="nonzero"/></clipPath></defs><g clip-path="url(#ef3ef8753e)"><path fill="#ec111a" d="M 19.054688 26.332031 C 18.695312 26.332031 18.351562 26.402344 18.015625 26.546875 C 17.683594 26.6875 17.390625 26.890625 17.136719 27.15625 C 16.882812 27.417969 16.6875 27.722656 16.546875 28.070312 C 16.410156 28.414062 16.339844 28.773438 16.339844 29.148438 C 16.339844 29.519531 16.410156 29.878906 16.546875 30.226562 C 16.683594 30.570312 16.878906 30.875 17.132812 31.140625 C 17.386719 31.402344 17.679688 31.605469 18.015625 31.75 C 18.347656 31.894531 18.691406 31.964844 19.050781 31.964844 C 19.410156 31.964844 19.757812 31.894531 20.089844 31.75 C 20.421875 31.609375 20.714844 31.40625 20.972656 31.140625 C 21.226562 30.875 21.421875 30.570312 21.558594 30.226562 C 21.695312 29.882812 21.765625 29.523438 21.765625 29.148438 C 21.765625 28.773438 21.699219 28.414062 21.558594 28.070312 C 21.421875 27.726562 21.226562 27.421875 20.972656 27.15625 C 20.71875 26.894531 20.425781 26.6875 20.09375 26.546875 C 19.761719 26.402344 19.414062 26.332031 19.054688 26.332031 Z M 19.054688 30.390625 C 18.867188 30.390625 18.691406 30.347656 18.523438 30.261719 C 18.359375 30.171875 18.21875 30.054688 18.105469 29.898438 C 17.992188 29.746094 17.917969 29.570312 17.882812 29.382812 C 17.84375 29.191406 17.851562 29.003906 17.902344 28.816406 C 17.949219 28.628906 18.035156 28.460938 18.160156 28.316406 C 18.285156 28.171875 18.433594 28.0625 18.605469 27.988281 C 18.777344 27.914062 18.957031 27.886719 19.144531 27.898438 C 19.328125 27.910156 19.503906 27.96875 19.664062 28.0625 C 19.828125 28.160156 19.957031 28.292969 20.0625 28.453125 C 20.164062 28.613281 20.230469 28.792969 20.253906 28.984375 C 20.277344 29.175781 20.257812 29.363281 20.199219 29.546875 C 20.136719 29.730469 20.039062 29.890625 19.90625 30.027344 C 19.671875 30.273438 19.386719 30.394531 19.054688 30.390625 Z M 19.054688 30.390625 " fill-opacity="1" fill-rule="nonzero"/></g><g clip-path="url(#fa0ccc3317)"><path fill="#ec111a" d="M 25.21875 26.464844 L 24.480469 26.464844 L 24.480469 24.792969 L 22.867188 24.792969 L 22.867188 26.464844 L 22.117188 26.464844 L 22.117188 27.988281 L 22.855469 27.988281 L 22.855469 31.828125 L 24.46875 31.828125 L 24.46875 27.988281 L 25.210938 27.988281 Z M 25.21875 26.464844 " fill-opacity="1" fill-rule="nonzero"/></g><g clip-path="url(#3a7780bb8b)"><path fill="#ec111a" d="M 25.960938 26.464844 L 27.574219 26.464844 L 27.574219 31.824219 L 25.960938 31.824219 Z M 25.960938 26.464844 " fill-opacity="1" fill-rule="nonzero"/></g><g clip-path="url(#d68bfa221f)"><path fill="#ec111a" d="M 26.769531 23.867188 C 26.523438 23.867188 26.308594 23.957031 26.132812 24.140625 C 25.953125 24.324219 25.867188 24.542969 25.867188 24.800781 C 25.863281 25.0625 25.953125 25.28125 26.128906 25.464844 C 26.304688 25.648438 26.515625 25.742188 26.765625 25.742188 C 27.015625 25.742188 27.226562 25.652344 27.40625 25.46875 C 27.582031 25.289062 27.671875 25.066406 27.671875 24.808594 C 27.671875 24.550781 27.585938 24.328125 27.410156 24.144531 C 27.234375 23.960938 27.019531 23.867188 26.769531 23.867188 Z M 26.769531 23.867188 " fill-opacity="1" fill-rule="nonzero"/></g><g clip-path="url(#534fef816d)"><path fill="#ec111a" d="M 49.992188 27.910156 C 50.121094 27.910156 50.242188 27.9375 50.363281 27.988281 C 50.480469 28.039062 50.585938 28.113281 50.675781 28.207031 C 50.765625 28.300781 50.835938 28.40625 50.882812 28.53125 C 50.933594 28.652344 50.957031 28.78125 50.957031 28.914062 L 50.957031 31.832031 L 52.570312 31.832031 L 52.570312 28.703125 C 52.570312 27.28125 51.777344 26.355469 50.527344 26.355469 C 50.007812 26.355469 49.46875 26.589844 49.023438 27.339844 L 49.023438 26.484375 L 47.410156 26.484375 L 47.410156 31.832031 L 49.023438 31.832031 L 49.023438 28.914062 C 49.019531 28.636719 49.113281 28.398438 49.300781 28.199219 C 49.492188 28 49.722656 27.90625 49.992188 27.910156 Z M 49.992188 27.910156 " fill-opacity="1" fill-rule="nonzero"/></g><g clip-path="url(#cabff2c2aa)"><path fill="#ec111a" d="M 58.476562 31.828125 L 56.488281 29.148438 L 58.335938 26.464844 L 56.457031 26.464844 L 54.96875 28.636719 L 54.96875 24 L 53.355469 24 L 53.355469 31.816406 L 54.96875 31.816406 L 54.96875 29.617188 L 56.601562 31.828125 Z M 58.476562 31.828125 " fill-opacity="1" fill-rule="nonzero"/></g><g clip-path="url(#a311fc4bd2)"><path fill="#ec111a" d="M 10.777344 30.386719 C 10.902344 30.070312 10.960938 29.738281 10.953125 29.398438 C 10.964844 28.882812 10.808594 28.425781 10.488281 28.03125 C 10.144531 27.636719 9.550781 27.308594 8.734375 27.0625 C 8.574219 27.015625 8.417969 26.960938 8.269531 26.890625 C 8.140625 26.824219 8.027344 26.734375 7.929688 26.625 C 7.824219 26.5 7.773438 26.355469 7.78125 26.191406 C 7.78125 25.9375 7.890625 25.75 8.109375 25.632812 C 8.535156 25.4375 8.964844 25.4375 9.390625 25.632812 C 9.570312 25.699219 9.746094 25.785156 9.914062 25.886719 L 10.601562 24.460938 C 10.292969 24.265625 9.964844 24.113281 9.613281 24.011719 C 9.253906 23.917969 8.890625 23.867188 8.519531 23.867188 C 8.164062 23.859375 7.820312 23.917969 7.488281 24.042969 C 7.191406 24.164062 6.929688 24.34375 6.703125 24.578125 C 6.476562 24.8125 6.300781 25.085938 6.179688 25.394531 C 6.0625 25.710938 6.011719 26.039062 6.015625 26.378906 C 6.039062 26.9375 6.242188 27.414062 6.628906 27.804688 C 6.984375 28.128906 7.394531 28.367188 7.847656 28.511719 C 8.0625 28.597656 8.300781 28.675781 8.449219 28.734375 C 8.605469 28.792969 8.753906 28.871094 8.894531 28.96875 C 8.996094 29.039062 9.074219 29.132812 9.128906 29.246094 C 9.179688 29.355469 9.199219 29.46875 9.179688 29.589844 C 9.164062 29.777344 9.089844 29.929688 8.953125 30.050781 C 8.730469 30.222656 8.484375 30.292969 8.207031 30.265625 C 7.890625 30.253906 7.589844 30.179688 7.300781 30.039062 C 7.054688 29.914062 6.8125 29.777344 6.582031 29.625 L 5.75 31.09375 C 6.414062 31.664062 7.179688 31.953125 8.042969 31.960938 C 8.460938 31.960938 8.867188 31.894531 9.265625 31.761719 C 9.605469 31.644531 9.914062 31.464844 10.191406 31.222656 C 10.441406 30.988281 10.636719 30.707031 10.777344 30.386719 Z M 10.777344 30.386719 " fill-opacity="1" fill-rule="nonzero"/></g><g clip-path="url(#e1d78f0038)"><path fill="#ec111a" d="M 59.621094 29.957031 C 59.484375 29.953125 59.355469 29.984375 59.234375 30.042969 C 59.109375 30.101562 59.007812 30.1875 58.917969 30.292969 C 58.832031 30.402344 58.773438 30.523438 58.738281 30.660156 C 58.707031 30.796875 58.703125 30.933594 58.726562 31.070312 C 58.753906 31.210938 58.804688 31.335938 58.886719 31.449219 C 58.964844 31.5625 59.066406 31.652344 59.183594 31.71875 C 59.304688 31.785156 59.429688 31.820312 59.566406 31.828125 C 59.699219 31.835938 59.832031 31.816406 59.957031 31.761719 C 60.15625 31.675781 60.304688 31.535156 60.410156 31.339844 C 60.511719 31.144531 60.542969 30.933594 60.5 30.714844 C 60.460938 30.496094 60.355469 30.316406 60.191406 30.171875 C 60.027344 30.027344 59.835938 29.957031 59.621094 29.957031 Z M 59.621094 31.628906 C 59.421875 31.632812 59.25 31.558594 59.105469 31.414062 C 58.964844 31.265625 58.894531 31.089844 58.890625 30.882812 C 58.890625 30.675781 58.960938 30.496094 59.101562 30.351562 C 59.242188 30.203125 59.414062 30.128906 59.613281 30.128906 C 59.8125 30.128906 59.984375 30.199219 60.125 30.347656 C 60.265625 30.496094 60.339844 30.671875 60.339844 30.878906 C 60.339844 31.085938 60.269531 31.265625 60.128906 31.410156 C 59.988281 31.558594 59.820312 31.636719 59.621094 31.640625 Z M 59.621094 31.628906 " fill-opacity="1" fill-rule="nonzero"/></g><g clip-path="url(#2fa9f249e6)"><path fill="#ec111a" d="M 59.613281 31.046875 L 59.472656 31.046875 L 59.472656 31.402344 L 59.292969 31.402344 L 59.292969 30.378906 L 59.671875 30.378906 C 59.84375 30.375 59.953125 30.464844 59.992188 30.640625 C 60.03125 30.816406 59.96875 30.941406 59.8125 31.019531 L 60.019531 31.402344 L 59.804688 31.402344 Z M 59.472656 30.875 L 59.679688 30.875 C 59.78125 30.875 59.828125 30.824219 59.828125 30.71875 C 59.828125 30.617188 59.78125 30.5625 59.679688 30.5625 L 59.472656 30.5625 Z M 59.472656 30.875 " fill-opacity="1" fill-rule="nonzero"/></g><g clip-path="url(#7b3d56473e)"><path fill="#ec111a" d="M 15.210938 29.925781 C 15.113281 30.050781 14.992188 30.15625 14.855469 30.234375 C 14.714844 30.316406 14.570312 30.363281 14.410156 30.382812 C 14.253906 30.398438 14.101562 30.386719 13.949219 30.339844 C 13.796875 30.292969 13.65625 30.21875 13.535156 30.117188 C 13.410156 30.015625 13.3125 29.890625 13.234375 29.75 C 13.15625 29.605469 13.109375 29.449219 13.09375 29.289062 C 13.074219 29.125 13.089844 28.964844 13.132812 28.804688 C 13.175781 28.648438 13.25 28.503906 13.347656 28.375 C 13.445312 28.25 13.5625 28.144531 13.703125 28.066406 C 13.839844 27.984375 13.988281 27.9375 14.144531 27.917969 C 14.304688 27.898438 14.457031 27.914062 14.609375 27.957031 C 14.761719 28.003906 14.898438 28.078125 15.023438 28.179688 C 15.089844 28.238281 15.152344 28.300781 15.210938 28.371094 L 16.285156 27.257812 C 15.75 26.644531 15.082031 26.335938 14.285156 26.335938 C 12.792969 26.335938 11.503906 27.4375 11.503906 29.144531 C 11.503906 30.855469 12.800781 31.960938 14.292969 31.960938 C 15.089844 31.960938 15.757812 31.65625 16.296875 31.042969 Z M 15.210938 29.925781 " fill-opacity="1" fill-rule="nonzero"/></g><g clip-path="url(#92cb7d2248)"><path fill="#ec111a" d="M 33.914062 31.832031 L 33.914062 26.464844 L 32.335938 26.464844 L 32.335938 27.023438 L 32.1875 26.890625 C 31.804688 26.515625 31.347656 26.328125 30.820312 26.332031 C 29.425781 26.332031 28.246094 27.621094 28.246094 29.144531 C 28.246094 30.667969 29.425781 31.960938 30.820312 31.960938 C 31.347656 31.96875 31.804688 31.78125 32.1875 31.402344 L 32.335938 31.269531 L 32.335938 31.828125 Z M 31.082031 30.414062 C 30.890625 30.414062 30.710938 30.367188 30.539062 30.277344 C 30.367188 30.191406 30.226562 30.066406 30.109375 29.910156 C 29.996094 29.753906 29.917969 29.578125 29.882812 29.382812 C 29.847656 29.1875 29.855469 28.996094 29.902344 28.804688 C 29.953125 28.613281 30.042969 28.445312 30.167969 28.296875 C 30.292969 28.148438 30.445312 28.035156 30.621094 27.960938 C 30.800781 27.886719 30.980469 27.855469 31.171875 27.871094 C 31.363281 27.882812 31.539062 27.941406 31.703125 28.039062 C 31.867188 28.140625 32.003906 28.273438 32.109375 28.4375 C 32.214844 28.601562 32.277344 28.785156 32.300781 28.980469 C 32.328125 29.175781 32.308594 29.367188 32.246094 29.554688 C 32.183594 29.742188 32.085938 29.90625 31.949219 30.042969 C 31.707031 30.292969 31.417969 30.414062 31.082031 30.414062 Z M 31.082031 30.414062 " fill-opacity="1" fill-rule="nonzero"/></g><g clip-path="url(#9bb1ee043f)"><path fill="#ec111a" d="M 46.632812 31.832031 L 46.632812 26.464844 L 45.054688 26.464844 L 45.054688 27.023438 L 44.90625 26.890625 C 44.523438 26.515625 44.066406 26.328125 43.539062 26.332031 C 42.144531 26.332031 40.96875 27.621094 40.96875 29.144531 C 40.96875 30.667969 42.148438 31.960938 43.539062 31.960938 C 44.066406 31.96875 44.523438 31.78125 44.90625 31.402344 L 45.054688 31.269531 L 45.054688 31.828125 Z M 43.8125 30.414062 C 43.648438 30.414062 43.492188 30.382812 43.34375 30.316406 C 43.195312 30.253906 43.0625 30.164062 42.945312 30.042969 C 42.832031 29.925781 42.742188 29.789062 42.679688 29.632812 C 42.617188 29.476562 42.585938 29.316406 42.585938 29.148438 C 42.582031 28.976562 42.613281 28.816406 42.675781 28.660156 C 42.738281 28.503906 42.824219 28.367188 42.941406 28.246094 C 43.054688 28.128906 43.1875 28.035156 43.335938 27.96875 C 43.488281 27.90625 43.644531 27.875 43.804688 27.871094 C 43.96875 27.871094 44.125 27.90625 44.273438 27.96875 C 44.425781 28.035156 44.558594 28.125 44.671875 28.246094 C 44.785156 28.363281 44.875 28.5 44.9375 28.65625 C 45 28.8125 45.03125 28.972656 45.03125 29.144531 C 45.03125 29.3125 45 29.472656 44.9375 29.628906 C 44.875 29.78125 44.789062 29.921875 44.675781 30.039062 C 44.558594 30.15625 44.429688 30.25 44.277344 30.316406 C 44.128906 30.378906 43.972656 30.414062 43.8125 30.414062 Z M 43.8125 30.414062 " fill-opacity="1" fill-rule="nonzero"/></g><g clip-path="url(#2d604af7b7)"><path fill="#ec111a" d="M 36.332031 31.832031 L 36.332031 31.277344 L 36.476562 31.40625 C 36.859375 31.785156 37.316406 31.96875 37.84375 31.964844 C 39.238281 31.964844 40.417969 30.675781 40.417969 29.148438 C 40.417969 27.621094 39.238281 26.335938 37.84375 26.335938 C 37.316406 26.332031 36.859375 26.519531 36.476562 26.894531 L 36.332031 27.027344 L 36.332031 24 L 34.75 24 L 34.75 31.832031 Z M 36.363281 29.152344 C 36.363281 28.984375 36.394531 28.820312 36.453125 28.664062 C 36.515625 28.511719 36.601562 28.371094 36.71875 28.253906 C 36.832031 28.132812 36.964844 28.042969 37.113281 27.976562 C 37.261719 27.910156 37.417969 27.878906 37.578125 27.878906 C 37.742188 27.878906 37.898438 27.910156 38.046875 27.972656 C 38.195312 28.035156 38.328125 28.128906 38.445312 28.246094 C 38.558594 28.363281 38.648438 28.503906 38.710938 28.65625 C 38.773438 28.8125 38.804688 28.972656 38.804688 29.140625 C 38.804688 29.308594 38.773438 29.472656 38.710938 29.628906 C 38.652344 29.78125 38.5625 29.921875 38.449219 30.039062 C 38.335938 30.160156 38.203125 30.25 38.054688 30.316406 C 37.902344 30.378906 37.75 30.414062 37.585938 30.414062 C 37.425781 30.414062 37.269531 30.382812 37.121094 30.316406 C 36.972656 30.253906 36.839844 30.164062 36.722656 30.042969 C 36.609375 29.925781 36.519531 29.789062 36.457031 29.636719 C 36.394531 29.480469 36.363281 29.320312 36.363281 29.152344 Z M 36.363281 29.152344 " fill-opacity="1" fill-rule="nonzero"/></g></svg>